<?xml version="1.0" encoding="UTF-8" standalone="no"?>
<svg xmlns="http://www.w3.org/2000/svg" xmlns:xlink="http://www.w3.org/1999/xlink" width="290" height="248.473"><linearGradient id="a"><stop offset="0"/><stop offset="1" stop-opacity="0"/></linearGradient><radialGradient xlink:href="#a" id="d" cx="228.4955" cy="257.56201" r="76.886513" gradientTransform="matrix(1 0 0 .54045 0 118.36365)" gradientUnits="userSpaceOnUse" spreadMethod="pad"/><radialGradient xlink:href="#a" id="g" cx="228.492" cy="185.093" r="43.303005" gradientTransform="matrix(1 0 0 1.0005 0 -.09403247)" gradientUnits="userSpaceOnUse"/><radialGradient id="e" cx="214.321" cy="509.118" r="68.1161" gradientTransform="matrix(2.0195 0 0 1.3771 -218.8062 -483.5406)" gradientUnits="userSpaceOnUse"><stop offset="0" stop-color="#3b74bc"/><stop offset="1" stop-color="#2d5990"/></radialGradient><linearGradient id="f" x1="228.23896618" x2="228.23896618" y1="220.31944402" y2="269.16709747" gradientUnits="userSpaceOnUse"><stop offset="0" stop-color="#fff"/><stop offset="1" stop-color="#c9c9c9"/></linearGradient><radialGradient id="h" cx="220.26967928" cy="157.86211576" r="56.42310744" gradientUnits="userSpaceOnUse"><stop offset="0" stop-color="#f4d9b1"/><stop offset="1" stop-color="#df9725"/></radialGradient><linearGradient xlink:href="#a" id="i" x1="305.2182" x2="315.0409" y1="440.0546" y2="442.0528" gradientTransform="matrix(1.5373 .2838 -.2838 1.5373 -168.6006 -513.7822)" gradientUnits="userSpaceOnUse"/><linearGradient xlink:href="#a" id="j" x1="-124.9426" x2="-131.333" y1="527.5223" y2="524.269" gradientTransform="matrix(-1.5284 .3284 .3284 1.5284 -91.6481 -515.4457)" gradientUnits="userSpaceOnUse"/><radialGradient xlink:href="#a" id="k" cx="215.2826" cy="923.8757" r="141.0669" gradientTransform="matrix(.8061 0 0 .1193 50.183 232.7599)" gradientUnits="userSpaceOnUse"/><linearGradient xlink:href="#a" id="l" x1="260.59861093" x2="226.79824738" y1="272.52996735" y2="300.69698819" gradientUnits="userSpaceOnUse"/><linearGradient xlink:href="#a" id="m" x1="246.158709" x2="109.41117638" y1="225.52635881" y2="181.48145881" gradientUnits="userSpaceOnUse"/><linearGradient id="b"><stop offset="0" stop-color="#fff"/><stop offset="1" stop-color="#fff" stop-opacity="0"/></linearGradient><linearGradient xlink:href="#b" id="n" x1="407.1811" x2="501.0493" y1="724.0286" y2="838.9335" gradientTransform="matrix(.8535 0 0 .9174 -159.5179 -421.538)" gradientUnits="userSpaceOnUse"/><linearGradient xlink:href="#b" id="o" x1="146.74363362" x2="213.1209368" y1="186.65786129" y2="208.02404228" gradientUnits="userSpaceOnUse"/><linearGradient xlink:href="#a" id="p" x1="199.68847146" x2="265.2373208" y1="297.49101363" y2="297.49101363" gradientUnits="userSpaceOnUse"/><linearGradient id="c"><stop offset="0" stop-color="#f54c4c"/><stop offset=".5" stop-color="#ba1313"/><stop offset="1" stop-color="#9a1919"/></linearGradient><linearGradient xlink:href="#c" id="q" x1="299.01944332" x2="366.88413848" y1="336.1428321" y2="413.42851448" gradientUnits="userSpaceOnUse"/><linearGradient xlink:href="#c" id="r" x1="310.0836866" x2="370.40397755" y1="346.9436186" y2="438.53450063" gradientUnits="userSpaceOnUse"/><g transform="translate(-126.08319804 -146.13909329) scale(1.26541)"><path fill="url(#d)" d="M305.382 257.556c.02 22.948-34.391 41.551-76.851 41.559-42.463.013-76.904-18.571-76.922-41.518v-.04c-.021-22.932 34.388-41.536 76.847-41.548 42.465-.012 76.905 18.576 76.926 41.518v.029z"/><path fill="url(#e)" stroke="#204a87" stroke-linecap="round" stroke-linejoin="round" stroke-width="4.9992" d="M203.492 280.717h53.021c15.024 0 29.9-5.509 35.353-21.21 5.177-14.913.886-43.301-32.702-66.284h-62.743c-33.583 21.215-37.781 50.22-30.049 67.167 7.878 17.27 21.212 20.327 37.12 20.327z"/><path fill="url(#f)" d="M207.026 201.178c15.907 14.141 22.975 65.401 22.975 65.401s7.073-51.26 19.443-66.282z"/><path fill="#729fcf" d="M218.421 206.482s-10.753 8.304-9.829 18.298c-10.201-9-10.495-26.254-10.495-26.254z"/><path fill="none" stroke="#fff" stroke-linecap="round" stroke-linejoin="round" stroke-width="4.9992" d="m203.131 275.507 52.462-.109c13.198 0 26.26-4.84 31.048-18.631 4.552-13.097-.473-38.038-29.972-58.22l-57.612-1.218c-29.502 18.634-35.207 44.112-28.308 60.212 6.906 16.101 16.979 17.857 32.382 17.966z" opacity=".2152"/><path fill="#729fcf" d="M240.609 206.482s10.753 8.304 9.824 18.298c10.205-9 10.5-26.254 10.5-26.254z"/><path fill="url(#g)" d="M271.795 185.096c.012 23.915-19.364 43.311-43.281 43.322-23.916.013-43.313-19.37-43.325-43.284v-.039c-.013-23.916 19.367-43.314 43.284-43.327 23.916-.01 43.31 19.367 43.322 43.284v.044z"/><path fill="url(#h)" stroke="#c17d11" stroke-linecap="round" stroke-linejoin="round" stroke-width="4.9992" d="M272.424 167.598c.012 23.914-19.372 43.317-43.284 43.325-23.913.005-43.313-19.367-43.325-43.285v-.04c-.008-23.916 19.368-43.313 43.282-43.325 23.916-.012 43.319 19.367 43.328 43.284-.001.013-.001.026-.001.041z"/><path fill="none" stroke="#fff" stroke-linecap="round" stroke-linejoin="round" stroke-width="5.6997" d="M267.103 167.598c.008 20.975-16.992 37.988-37.971 37.998-20.975.012-37.985-16.989-37.994-37.964v-.034c-.011-20.978 16.989-37.989 37.961-37.999 20.982-.01 37.992 16.987 38.004 37.962v.037z" opacity=".1962"/><path fill="url(#i)" d="M182.819 276.413c-6.237-2.723-9.026-9.292-9.026-9.292 4.204-20.341 18.597-35.221 18.597-35.221s-11.397 32.054-9.571 44.513z" opacity=".2278"/><path fill="url(#j)" d="M277.338 272.121c6.154-2.904 9.016-10.009 9.016-10.009-4.796-20.212-19.873-34.206-19.873-34.206s12.317 31.705 10.857 44.215z" opacity=".2278"/></g><g transform="translate(-111.45395 -135.82239) scale(1.02429)"><path fill="url(#k)" d="M334.752 342.914a111.026 16.441 0 0 1-111.026 16.441A111.026 16.441 0 0 1 112.7 342.914a111.026 16.441 0 0 1 111.026-16.441 111.026 16.441 0 0 1 111.026 16.441z" opacity=".673"/><path fill="none" d="M95.142998 116.981H345.143v250.00101H95.142998z"/><path fill="#c4a000" stroke="#000" stroke-linejoin="round" stroke-width="4.55" d="M175.143 146.979c-30.928 0-56 25.072-56 56 0 25.904 17.879 46.698 41.473 54.099 10.067 3.156 22.786 1.323 24.044 1.569l-6.497 7.584 9.468 1.229-3.61 9.883 15.655.305-6.246 9.104 13.728-1.477-1.791 9.607 9.949-2.265 6.221 14.271 13.175 8.174-10.002 10.918c.709.484 15.655 2.393 15.655 2.393l-.086 10.135 7.471 4.981 10.713 1.181 20.144-11.78.088-16.332-39.356-61.484-1.316-13.011-12.399-11.577c.992-4.174 6.021-11.027 5.521-27.505-.94-30.915-25.075-56.002-56.002-56.002zm-8.499 26.502c8.285 0 14.995 6.711 14.995 14.996 0 8.284-6.71 15.006-14.995 15.006-8.284 0-15.006-6.722-15.006-15.006 0-8.285 6.722-14.996 15.006-14.996z"/><path fill="#fff" d="m214.143 244.481 6 11.501 42.5 64.498 8.501 10-2.5-10.998-43.501-68.002z" opacity=".5943"/><path fill="url(#l)" d="m214.143 244.481 6 11.501 42.5 64.498 8.501 10-5.329-10.469-42.617-65.525z" opacity=".6647"/><path fill="url(#m)" d="M175.394 153.98c-26.924 0-48.748 21.824-48.748 48.748 0 26.924 21.824 48.75 48.748 48.75s48.749-21.824 48.749-48.75c0-26.924-21.825-48.748-48.749-48.748zm-9.253 20.497c7.456 0 13.497 6.051 13.497 13.508 0 7.456-6.041 13.497-13.497 13.497-7.456 0-13.497-6.042-13.497-13.497.001-7.456 6.041-13.508 13.497-13.508z" opacity=".6132"/><path fill="url(#n)" d="M178.143 254.057c10.839.275 16.549 3.449 30.476-8.722l57.023 87.392-5.209 4.1c-17.293-24.872-42.851-57.168-61.061-80.182-10.526 4.556-13.139-.041-21.229-2.588z" opacity=".7296"/><path fill="url(#o)" d="M148.772 188.06s3.575 19.539 21.213 16.971c17.638-2.57 13.081-24.749 13.081-24.749s8.168 27.364-13.435 29.7c-21.603 2.334-20.859-21.922-20.859-21.922z" opacity=".5975"/><path fill="url(#p)" d="m199.684 257.355 2.122 12.727 48.791 61.166 9.545 6.363 1.063-1.412z" opacity=".5252"/></g><g transform="translate(-126.8182895 -173.7210941) scale(1.02429)"><path fill="#777" fill-opacity=".8" d="M345.578 305.772c-1.345.068-2.548.809-3.225 1.967l-53.587 92.467c-.717 1.225-.719 2.737-.006 3.963.706 1.227 2.01 1.983 3.423 1.986l106.865.17c1.423.003 2.729-.749 3.448-1.976.709-1.224.711-2.736.01-3.965l-53.292-92.635c-.757-1.289-2.159-2.05-3.636-1.977zm.181 11.888 46.446 80.719-93.141-.141z"/><path fill="url(#q)" stroke="#870000" stroke-linecap="round" stroke-linejoin="round" stroke-width="1.5066" d="M341.388 303.908c-1.348.067-2.551.809-3.228 1.966l-53.597 92.465c-.709 1.227-.711 2.739-.006 3.965.706 1.227 2.017 1.983 3.43 1.983l106.867.17c1.422.005 2.73-.75 3.438-1.973.717-1.227.719-2.737.017-3.966l-53.288-92.634c-.754-1.29-2.161-2.051-3.633-1.976zm.177 11.887 46.437 80.716-93.14-.138z"/><path fill="url(#r)" stroke="url(#r)" stroke-linecap="round" stroke-linejoin="round" stroke-width="4.9874" d="m394.84 400.47-106.82-.163 53.558-92.412 53.263 92.602z"/><path fill="#fff" d="M341.402 328.095c-.822.047-1.582.511-1.986 1.232l-33.13 58.082c-.432.767-.433 1.723 0 2.482.431.777 1.24 1.252 2.124 1.252l66.038.109c.875 0 1.686-.471 2.118-1.245.446-.769.446-1.714.008-2.486l-32.927-58.186c-.459-.813-1.321-1.289-2.245-1.24z"/><path d="M342.602 372.081H340.9c-.164-3.001-.747-6.597-1.747-10.776l-2.008-8.52c-1.197-5.11-1.799-8.771-1.799-10.978 0-4.463 2.123-6.688 6.372-6.688 1.882 0 3.419.609 4.626 1.852 1.224 1.231 1.829 2.804 1.829 4.716 0 2.035-.648 5.736-1.934 11.1l-2.032 8.52c-.714 2.999-1.257 6.59-1.605 10.774zm-.794 5.593c1.983 0 3.534.679 4.615 2.028 1.083 1.349 1.631 2.802 1.631 4.339 0 2.021-.665 3.595-1.98 4.685-1.333 1.104-2.749 1.638-4.266 1.638-1.997 0-3.534-.664-4.626-2.005-1.073-1.34-1.601-2.783-1.601-4.317 0-1.795.593-3.305 1.785-4.53 1.19-1.234 2.679-1.838 4.442-1.838z"/></g></svg>